<?xml version="1.0" encoding="UTF-8" standalone="no"?>
<!DOCTYPE svg PUBLIC "-//W3C//DTD SVG 1.1//EN" "http://www.w3.org/Graphics/SVG/1.1/DTD/svg11.dtd">
<svg xmlns="http://www.w3.org/2000/svg" version="1.1" viewBox="0.00 0.00 1082.00 386.00">
<path fill="#ffc000" d="
  M 63.88 232.72
  C 74.10 233.97 77.98 245.69 73.05 253.81
  C 68.27 261.68 56.70 262.22 50.70 255.54
  C 43.81 247.85 47.43 235.47 57.77 232.75
  Q 58.37 232.59 57.87 232.22
  Q 57.71 232.10 57.48 232.01
  Q 57.29 231.94 57.03 231.96
  C 46.86 232.91 37.13 227.41 34.00 217.60
  Q 33.01 214.50 33.01 208.16
  Q 32.99 153.63 33.01 99.11
  C 33.01 92.05 32.54 86.60 24.21 86.68
  A 1.66 1.64 -30.7 0 1 23.44 86.49
  C 14.93 81.99 19.06 71.52 28.74 73.05
  C 41.32 75.04 46.37 83.57 47.04 95.63
  Q 47.08 96.25 47.70 96.25
  L 192.50 96.25
  A 0.50 0.50 0.0 0 1 193.00 96.75
  L 193.00 184.76
  Q 193.00 185.26 192.50 185.30
  L 47.68 198.08
  Q 47.05 198.14 47.03 198.77
  C 46.78 207.11 44.54 218.01 55.97 218.01
  Q 120.37 217.99 184.75 218.00
  C 195.27 218.01 195.32 231.56 186.68 231.78
  Q 177.37 232.03 168.11 232.02
  A 0.33 0.32 -37.9 0 0 168.03 232.66
  C 179.89 235.65 182.82 250.83 172.79 257.79
  C 162.60 264.85 149.18 256.09 151.02 243.92
  Q 152.36 235.01 161.81 232.63
  A 0.32 0.31 -51.8 0 0 161.74 232.01
  Q 112.93 231.99 64.64 232.01
  Q 64.27 232.01 64.02 232.18
  Q 63.88 232.28 63.76 232.40
  Q 63.51 232.68 63.88 232.72
  Z
  M 72.9866 110.8273
  A 0.60 0.60 0.0 0 0 72.3856 110.2284
  L 47.5856 110.2717
  A 0.60 0.60 0.0 0 0 46.9867 110.8727
  L 47.0134 126.1727
  A 0.60 0.60 0.0 0 0 47.6144 126.7716
  L 72.4144 126.7283
  A 0.60 0.60 0.0 0 0 73.0133 126.1273
  L 72.9866 110.8273
  Z
  M 108.25 110.60
  A 0.35 0.35 0.0 0 0 107.90 110.25
  L 82.86 110.25
  A 0.35 0.35 0.0 0 0 82.51 110.60
  L 82.51 126.40
  A 0.35 0.35 0.0 0 0 82.86 126.75
  L 107.90 126.75
  A 0.35 0.35 0.0 0 0 108.25 126.40
  L 108.25 110.60
  Z
  M 143.49 110.56
  A 0.31 0.31 0.0 0 0 143.18 110.25
  L 118.06 110.25
  A 0.31 0.31 0.0 0 0 117.75 110.56
  L 117.75 126.44
  A 0.31 0.31 0.0 0 0 118.06 126.75
  L 143.18 126.75
  A 0.31 0.31 0.0 0 0 143.49 126.44
  L 143.49 110.56
  Z
  M 178.9866 110.8273
  A 0.60 0.60 0.0 0 0 178.3856 110.2284
  L 153.5856 110.2717
  A 0.60 0.60 0.0 0 0 152.9867 110.8727
  L 153.0134 126.1727
  A 0.60 0.60 0.0 0 0 153.6144 126.7716
  L 178.4144 126.7283
  A 0.60 0.60 0.0 0 0 179.0133 126.1273
  L 178.9866 110.8273
  Z
  M 72.9866 136.5773
  A 0.60 0.60 0.0 0 0 72.3856 135.9784
  L 47.5856 136.0217
  A 0.60 0.60 0.0 0 0 46.9867 136.6227
  L 47.0134 151.9227
  A 0.60 0.60 0.0 0 0 47.6144 152.5216
  L 72.4144 152.4783
  A 0.60 0.60 0.0 0 0 73.0133 151.8773
  L 72.9866 136.5773
  Z
  M 108.24 136.53
  A 0.53 0.53 0.0 0 0 107.71 136.00
  L 83.03 136.00
  A 0.53 0.53 0.0 0 0 82.50 136.53
  L 82.50 151.97
  A 0.53 0.53 0.0 0 0 83.03 152.50
  L 107.71 152.50
  A 0.53 0.53 0.0 0 0 108.24 151.97
  L 108.24 136.53
  Z
  M 143.50 136.31
  A 0.31 0.31 0.0 0 0 143.19 136.00
  L 118.07 136.00
  A 0.31 0.31 0.0 0 0 117.76 136.31
  L 117.76 152.19
  A 0.31 0.31 0.0 0 0 118.07 152.50
  L 143.19 152.50
  A 0.31 0.31 0.0 0 0 143.50 152.19
  L 143.50 136.31
  Z
  M 178.9866 136.5773
  A 0.60 0.60 0.0 0 0 178.3856 135.9784
  L 153.5856 136.0217
  A 0.60 0.60 0.0 0 0 152.9867 136.6227
  L 153.0134 151.9227
  A 0.60 0.60 0.0 0 0 153.6144 152.5216
  L 178.4144 152.4783
  A 0.60 0.60 0.0 0 0 179.0133 151.8773
  L 178.9866 136.5773
  Z
  M 82.80 161.75
  A 0.30 0.30 0.0 0 0 82.50 162.05
  L 82.50 180.68
  A 0.30 0.30 0.0 0 0 82.83 180.98
  L 107.98 178.70
  A 0.30 0.30 0.0 0 0 108.25 178.41
  L 108.25 162.05
  A 0.30 0.30 0.0 0 0 107.95 161.75
  L 82.80 161.75
  Z
  M 47.00 183.49
  A 0.51 0.51 0.0 0 0 47.56 184.00
  L 72.54 181.78
  A 0.51 0.51 0.0 0 0 73.00 181.27
  L 73.00 162.26
  A 0.51 0.51 0.0 0 0 72.49 161.75
  L 47.51 161.75
  A 0.51 0.51 0.0 0 0 47.00 162.26
  L 47.00 183.49
  Z
  M 143.50 162.14
  A 0.39 0.39 0.0 0 0 143.11 161.75
  L 118.14 161.75
  A 0.39 0.39 0.0 0 0 117.75 162.14
  L 117.75 177.29
  A 0.39 0.39 0.0 0 0 118.17 177.68
  L 143.14 175.48
  A 0.39 0.39 0.0 0 0 143.50 175.09
  L 143.50 162.14
  Z
  M 153.00 174.15
  A 0.51 0.51 0.0 0 0 153.56 174.66
  L 178.54 172.37
  A 0.51 0.51 0.0 0 0 179.00 171.86
  L 179.00 162.26
  A 0.51 0.51 0.0 0 0 178.49 161.75
  L 153.51 161.75
  A 0.51 0.51 0.0 0 0 153.00 162.26
  L 153.00 174.15
  Z"
/>
<circle fill="#000000" cx="595.00" cy="110.58" r="15.03"/>
<path fill="#000000" d="
  M 661.00 141.51
  A 0.60 0.60 0.0 0 0 661.99 141.97
  C 677.89 128.68 701.58 133.51 709.05 153.49
  C 713.77 166.11 714.17 181.28 712.29 194.50
  C 709.63 213.13 699.01 229.05 678.86 231.10
  Q 666.62 232.34 658.64 223.68
  A 0.55 0.55 0.0 0 0 657.71 223.89
  C 656.83 226.64 655.37 231.70 651.52 230.88
  Q 643.24 229.12 634.87 226.89
  A 1.60 1.60 0.0 0 1 633.88 224.58
  C 636.99 218.86 637.73 213.63 637.73 206.53
  Q 637.77 154.08 637.74 102.46
  A 3.13 3.13 0.0 0 1 640.25 99.39
  L 658.97 95.56
  A 1.69 1.69 0.0 0 1 661.00 97.21
  L 661.00 141.51
  Z
  M 661.00 159.99
  L 661.00 208.28
  A 1.26 1.26 0.0 0 0 661.38 209.18
  C 666.00 213.60 673.29 213.68 678.59 210.86
  C 691.75 203.86 691.04 180.06 688.81 167.82
  C 687.00 157.86 680.70 150.65 669.67 153.41
  Q 665.39 154.47 661.39 158.98
  Q 661.00 159.41 661.00 159.99
  Z"
/>
<path fill="#000000" d="
  M 289.53 229.66
  C 261.29 235.93 238.87 223.47 232.68 194.96
  Q 226.06 164.48 233.19 135.49
  C 239.44 110.13 261.19 94.14 287.62 101.27
  C 291.48 102.31 306.93 108.69 306.90 113.35
  C 306.88 115.84 300.61 123.98 298.74 126.66
  A 2.48 2.47 35.2 0 1 295.26 127.25
  C 288.66 122.50 283.07 118.29 274.30 119.55
  C 262.48 121.26 257.85 132.34 256.57 143.57
  Q 253.90 167.14 257.51 189.75
  C 259.33 201.13 265.26 211.31 278.22 211.26
  C 285.49 211.23 290.63 207.88 297.01 204.94
  Q 299.26 203.90 300.49 206.05
  Q 303.81 211.85 307.04 217.99
  C 309.73 223.10 292.64 228.97 289.53 229.66
  Z"
/>
<path fill="#000000" d="
  M 500.50 113.73
  A 2.39 2.38 -3.9 0 1 502.57 111.37
  L 521.46 108.80
  Q 523.68 108.50 523.71 110.74
  L 524.07 136.93
  Q 524.08 137.52 524.68 137.52
  L 545.28 137.49
  Q 548.40 137.48 547.72 140.53
  L 544.97 152.96
  A 2.07 2.06 5.7 0 1 542.99 154.58
  L 524.64 154.82
  Q 524.12 154.83 524.11 155.34
  Q 523.69 177.23 523.68 198.98
  Q 523.67 203.77 524.51 206.52
  C 526.57 213.26 539.48 208.53 543.59 206.58
  A 1.66 1.66 0.0 0 1 545.91 207.69
  Q 547.84 215.71 549.70 223.03
  Q 550.36 225.58 547.68 226.66
  C 534.29 232.05 508.44 235.98 502.73 217.74
  Q 500.42 210.34 500.41 199.56
  Q 500.39 177.64 500.57 155.40
  A 0.60 0.60 0.0 0 0 499.99 154.80
  L 486.45 154.44
  A 1.49 1.49 0.0 0 1 485.00 152.95
  L 485.00 139.20
  A 1.56 1.56 0.0 0 1 486.54 137.64
  L 499.78 137.44
  A 0.73 0.73 0.0 0 0 500.50 136.71
  L 500.50 113.73
  Z"
/>
<path fill="#000000" d="
  M 371.97 220.80
  A 0.41 0.41 0.0 0 0 371.26 220.59
  C 363.69 228.80 353.98 232.25 342.80 230.61
  C 317.11 226.84 312.61 191.87 333.74 178.29
  C 342.15 172.89 356.68 171.96 367.26 171.96
  A 0.92 0.92 0.0 0 0 368.17 171.12
  C 368.83 162.96 368.89 154.25 358.38 153.08
  C 350.00 152.15 341.36 155.10 333.68 158.16
  A 2.17 2.17 0.0 0 1 330.82 156.82
  L 326.46 143.52
  A 1.20 1.18 55.4 0 1 326.65 142.43
  C 332.17 135.35 355.74 134.22 364.01 134.74
  C 381.66 135.83 390.37 146.43 390.36 163.94
  Q 390.35 182.47 390.28 201.00
  C 390.25 210.57 392.60 214.98 394.93 222.58
  A 1.37 1.37 0.0 0 1 394.17 224.23
  Q 386.13 227.74 377.94 230.95
  C 375.00 232.11 372.31 222.73 371.97 220.80
  Z
  M 345.44 193.19
  C 336.75 205.12 348.48 219.41 361.83 212.06
  C 364.12 210.80 368.48 208.23 368.34 205.25
  Q 367.92 196.41 367.99 187.57
  Q 368.00 187.07 367.50 187.04
  C 361.21 186.67 349.55 187.53 345.44 193.19
  Z"
/>
<path fill="#000000" d="
  M 440.25 226.38
  A 1.63 1.62 -0.0 0 1 438.62 228.00
  L 418.55 228.00
  A 1.58 1.58 0.0 0 1 416.97 226.42
  Q 417.03 198.04 417.10 169.25
  Q 417.13 156.00 412.18 143.57
  A 1.81 1.81 0.0 0 1 413.15 141.24
  Q 420.64 138.05 428.82 134.83
  C 433.03 133.17 436.11 145.00 436.65 147.71
  A 0.66 0.66 0.0 0 0 437.84 147.95
  C 444.31 138.46 453.78 132.49 465.81 135.39
  Q 468.82 136.11 470.23 138.32
  A 0.90 0.89 -52.2 0 1 470.32 139.09
  L 463.95 156.59
  A 1.62 1.61 24.3 0 1 461.66 157.45
  C 453.53 153.02 446.24 157.25 440.55 164.15
  Q 440.25 164.51 440.25 164.99
  L 440.25 226.38
  Z"
/>
<path fill="#000000" d="
  M 784.97 221.02
  A 0.44 0.44 0.0 0 0 784.26 220.80
  Q 771.88 231.57 755.26 230.92
  C 738.58 230.26 733.05 218.06 733.03 203.29
  Q 732.97 172.20 733.01 140.98
  A 2.57 2.56 84.3 0 1 735.05 138.48
  L 754.50 134.50
  A 1.47 1.46 -5.8 0 1 756.26 135.93
  Q 756.26 165.92 756.17 195.75
  Q 756.16 200.44 757.36 204.97
  C 760.44 216.50 775.78 211.14 782.16 206.39
  Q 782.50 206.13 782.50 205.71
  L 782.50 141.47
  A 3.15 3.14 -5.9 0 1 785.01 138.39
  L 803.99 134.51
  A 1.44 1.44 0.0 0 1 805.72 135.92
  Q 805.76 165.03 805.90 194.25
  C 805.95 203.97 805.75 213.60 809.24 222.83
  A 2.21 2.20 -20.5 0 1 807.93 225.68
  C 803.24 227.39 798.11 228.79 793.10 230.71
  C 787.60 232.82 785.90 224.58 784.97 221.02
  Z"
/>
<path fill="#000000" d="
  M 866.26 214.83
  A 0.28 0.28 0.0 0 0 866.81 214.83
  Q 873.62 178.78 882.00 142.91
  C 883.10 138.19 882.82 135.44 888.42 136.09
  Q 896.19 137.01 904.40 138.18
  A 1.53 1.53 0.0 0 1 905.66 140.09
  Q 893.57 185.18 881.02 230.51
  Q 879.28 236.79 875.10 248.19
  C 867.08 270.05 843.86 269.89 826.03 261.48
  Q 823.94 260.49 823.08 258.72
  Q 822.84 258.22 823.06 257.72
  L 829.39 243.90
  A 1.67 1.66 -62.9 0 1 831.73 243.14
  C 840.52 248.11 853.50 251.12 859.05 239.55
  Q 860.55 236.42 862.45 228.57
  Q 862.57 228.08 862.07 228.06
  Q 858.60 227.88 855.23 227.98
  C 852.48 228.06 852.22 226.66 851.50 224.55
  Q 837.22 182.40 823.10 140.59
  A 1.93 1.92 77.5 0 1 824.71 138.05
  L 843.95 135.92
  Q 846.53 135.63 847.21 138.13
  C 854.14 163.47 861.60 188.97 866.26 214.83
  Z"
/>
<path fill="#000000" d="
  M 583.02 154.71
  L 568.46 154.45
  A 1.49 1.49 0.0 0 1 567.00 152.96
  L 567.00 139.49
  A 2.06 2.06 0.0 0 1 569.10 137.43
  Q 580.37 137.67 591.48 137.76
  C 594.92 137.79 600.77 137.18 605.47 137.79
  A 1.46 1.46 0.0 0 1 606.75 139.24
  L 606.75 226.25
  A 1.75 1.75 0.0 0 1 605.00 228.00
  L 585.50 228.00
  A 2.00 2.00 0.0 0 1 583.50 226.00
  L 583.50 155.20
  Q 583.50 154.72 583.02 154.71
  Z"
/>
<path fill="#000000" d="
  M 955.27 193.88
  C 954.49 195.79 955.38 197.68 957.29 198.60
  C 963.34 201.52 971.18 202.39 974.50 208.82
  Q 976.88 213.42 975.31 218.76
  C 971.21 232.63 953.86 229.86 944.36 224.61
  A 2.18 2.18 0.0 0 1 943.43 221.81
  L 945.90 216.31
  A 0.63 0.63 0.0 0 1 946.79 216.03
  C 950.23 218.02 960.91 222.07 964.00 218.23
  C 965.82 215.99 965.00 212.54 962.22 211.52
  C 956.76 209.54 950.21 207.86 946.93 203.93
  C 942.12 198.17 945.13 188.39 950.94 184.69
  C 957.58 180.45 967.00 181.81 974.03 185.23
  A 1.54 1.54 0.0 0 1 974.78 187.19
  L 972.64 192.52
  A 1.04 1.04 0.0 0 1 971.39 193.13
  C 967.45 192.01 957.28 188.95 955.27 193.88
  Z"
/>
<path fill="#000000" d="
  M 1009.69 224.19
  A 0.55 0.55 0.0 0 0 1008.75 223.94
  C 999.28 234.27 981.25 227.85 983.96 212.48
  C 985.90 201.41 998.08 199.87 1006.94 199.95
  Q 1007.38 199.96 1007.49 199.53
  Q 1008.64 195.44 1006.32 192.85
  C 1003.21 189.36 993.59 192.27 989.99 193.82
  A 0.51 0.51 0.0 0 1 989.32 193.53
  L 986.93 187.15
  A 1.72 1.72 0.0 0 1 987.88 184.96
  C 995.09 181.95 1007.90 179.92 1014.51 185.25
  C 1023.41 192.41 1015.38 213.20 1020.73 223.55
  A 1.72 1.72 0.0 0 1 1019.85 225.94
  L 1012.62 228.86
  Q 1012.26 229.00 1012.00 228.71
  Q 1010.27 226.77 1009.69 224.19
  Z
  M 1007.07 207.52
  C 984.96 206.28 997.73 229.13 1007.38 217.31
  Q 1007.75 216.85 1007.75 216.26
  L 1007.75 208.24
  A 0.72 0.72 0.0 0 0 1007.07 207.52
  Z"
/>
<circle fill="#000000" cx="924.52" cy="220.27" r="8.65"/>
</svg>
